<svg xmlns="http://www.w3.org/2000/svg" viewBox="0 0 960 720" role="img" aria-labelledby="title desc">
  <title id="title">Workbench Signal Map</title>
  <desc id="desc">An abstract map of learning paths and AI tool nodes.</desc>
  <defs>
    <linearGradient id="bg" x1="0" x2="1" y1="0" y2="1">
      <stop offset="0" stop-color="#e9f1e5"/>
      <stop offset="0.52" stop-color="#f7f6ec"/>
      <stop offset="1" stop-color="#e7eff3"/>
    </linearGradient>
    <pattern id="grid" width="48" height="48" patternUnits="userSpaceOnUse">
      <path d="M 48 0 L 0 0 0 48" fill="none" stroke="#17211c" stroke-opacity=".08" stroke-width="1"/>
    </pattern>
    <filter id="shadow" x="-20%" y="-20%" width="140%" height="140%">
      <feDropShadow dx="0" dy="18" stdDeviation="22" flood-color="#17211c" flood-opacity=".18"/>
    </filter>
  </defs>
  <rect width="960" height="720" fill="url(#bg)"/>
  <rect width="960" height="720" fill="url(#grid)"/>
  <path d="M94 526 C220 414 250 264 398 260 C526 256 548 366 662 322 C764 282 789 172 884 134" fill="none" stroke="#245c47" stroke-width="8" stroke-linecap="round"/>
  <path d="M110 180 C242 246 342 146 454 210 C564 272 564 442 704 470 C788 488 842 446 902 392" fill="none" stroke="#2b6f8f" stroke-width="5" stroke-dasharray="18 18" stroke-linecap="round"/>
  <g filter="url(#shadow)">
    <rect x="128" y="104" width="230" height="128" rx="8" fill="#fffdf6" stroke="#17211c" stroke-opacity=".16"/>
    <rect x="610" y="96" width="210" height="150" rx="8" fill="#ffffff" stroke="#17211c" stroke-opacity=".14"/>
    <rect x="416" y="398" width="270" height="138" rx="8" fill="#fffdf6" stroke="#17211c" stroke-opacity=".16"/>
  </g>
  <g fill="#17211c">
    <rect x="160" y="138" width="118" height="10" rx="5" opacity=".78"/>
    <rect x="160" y="164" width="166" height="8" rx="4" opacity=".32"/>
    <rect x="160" y="188" width="132" height="8" rx="4" opacity=".26"/>
    <rect x="644" y="132" width="96" height="10" rx="5" opacity=".78"/>
    <rect x="644" y="160" width="138" height="8" rx="4" opacity=".34"/>
    <rect x="644" y="184" width="112" height="8" rx="4" opacity=".26"/>
    <rect x="452" y="432" width="142" height="10" rx="5" opacity=".78"/>
    <rect x="452" y="460" width="188" height="8" rx="4" opacity=".32"/>
    <rect x="452" y="484" width="126" height="8" rx="4" opacity=".26"/>
  </g>
  <g>
    <circle cx="94" cy="526" r="18" fill="#c9852d"/>
    <circle cx="398" cy="260" r="22" fill="#245c47"/>
    <circle cx="662" cy="322" r="18" fill="#d9604a"/>
    <circle cx="884" cy="134" r="22" fill="#2b6f8f"/>
    <circle cx="454" cy="210" r="14" fill="#c9852d"/>
    <circle cx="704" cy="470" r="20" fill="#245c47"/>
  </g>
  <g stroke="#17211c" stroke-opacity=".5" stroke-width="2">
    <path d="M724 580 h132"/>
    <path d="M724 608 h82"/>
    <path d="M724 636 h108"/>
  </g>
  <circle cx="820" cy="584" r="7" fill="#d9604a"/>
  <circle cx="780" cy="612" r="7" fill="#2b6f8f"/>
  <circle cx="848" cy="640" r="7" fill="#245c47"/>
</svg>
